<?xml version="1.0" encoding="UTF-8"?>
<svg version="1.1" xmlns="http://www.w3.org/2000/svg" width="2500" height="601">
<path d="M0 0 C7.93940409 4.64109664 13.31293095 10.82690799 16.09994191 19.63628322 C16.71046369 22.67361627 16.68873619 25.55228519 16.68999195 28.65149975 C16.69163578 29.32876823 16.69327962 30.00603671 16.69497326 30.70382848 C16.69930084 32.98374054 16.6965092 35.26358904 16.69380188 37.54350281 C16.69550368 39.19046145 16.6976532 40.83741968 16.70021313 42.48437721 C16.70481451 46.07071044 16.70623015 49.65702641 16.70524788 53.24336243 C16.70365673 59.0782489 16.70885376 64.91311821 16.71487427 70.7480011 C16.72299164 79.21990135 16.72793262 87.69179859 16.73116493 96.16370201 C16.736659 109.55387516 16.75355397 122.94402281 16.77250671 136.33418274 C16.77886365 140.91417594 16.78517206 145.49416922 16.79148388 150.07416248 C16.79306764 151.21880385 16.7946514 152.36344521 16.79628316 153.54277268 C16.81422454 166.57628347 16.83044854 179.60979606 16.84545898 192.64331055 C16.84752279 194.43074521 16.84752279 194.43074521 16.84962829 196.25428966 C16.87155687 215.56346857 16.88231405 234.87264092 16.88982973 254.18183007 C16.89789968 274.0013171 16.92118639 293.8207479 16.9577834 313.64020282 C16.97981466 325.86744818 16.98947112 338.09457791 16.98328307 350.32184211 C16.98010939 358.70192348 16.99143263 367.08190608 17.01417748 375.46195688 C17.02684963 380.2974814 17.03300979 385.1327859 17.02176094 389.96831894 C17.01159128 394.39685149 17.0198442 398.82495694 17.0426239 403.25343905 C17.04761727 404.85373163 17.04589203 406.45406258 17.03669123 408.05433651 C16.89587438 421.44369508 16.89587438 421.44369508 23.28315526 432.80179328 C29.97206533 439.16264301 38.13301011 439.54619846 46.9375 440.5625 C48.05511719 440.6965625 49.17273438 440.830625 50.32421875 440.96875 C53.06969788 441.29726887 55.81572829 441.62000195 58.5625 441.9375 C54.86583846 445.072551 50.70682764 446.8359391 46.3203125 448.7890625 C45.49704971 449.16033264 44.67378693 449.53160278 43.82557678 449.91412354 C41.11501089 451.13504023 38.40130983 452.348813 35.6875 453.5625 C33.7905899 454.41512348 31.89386366 455.26815611 29.99731445 456.12158203 C25.12921822 458.31051992 20.2583735 460.49326092 15.38641357 462.67358398 C12.70008854 463.87591867 10.01424766 465.07932665 7.32861328 466.28320312 C-1.41519683 470.20241582 -10.16207644 474.11471007 -18.91130066 478.02182007 C-26.11050039 481.2371039 -33.30573848 484.46118472 -40.5 487.6875 C-41.66249268 488.20876465 -42.82498535 488.7300293 -44.02270508 489.26708984 C-46.33433029 490.30366545 -48.64593527 491.34028619 -50.95751953 492.37695312 C-56.95055831 495.06444463 -62.94405751 497.75090899 -68.9375 500.4375 C-71.35416876 501.52082866 -73.77083543 502.60416199 -76.1875 503.6875 C-100.35416667 514.52083333 -124.52083333 525.35416667 -148.6875 536.1875 C-149.8830249 536.72342773 -151.0785498 537.25935547 -152.31030273 537.81152344 C-154.73428525 538.89813066 -157.15827617 539.98471911 -159.58227539 541.07128906 C-165.51207775 543.72938033 -171.44174811 546.38776509 -177.37109375 549.046875 C-192.68624122 555.91465413 -208.00552907 562.77312237 -223.328125 569.62426758 C-231.35304394 573.21281632 -239.37650955 576.80447563 -247.39282227 580.41221619 C-251.53966826 582.27781396 -255.69285265 584.12876982 -259.84765625 585.9765625 C-264.19670933 587.91499759 -268.51048491 589.91218784 -272.80859375 591.9609375 C-284.48129813 597.44205782 -294.02377203 601.64537875 -307.06640625 598.25390625 C-315.58109279 595.01227432 -322.63965075 588.18089372 -326.4375 579.9375 C-327.99113829 575.1788666 -328.68756747 571.07437375 -328.68803978 566.07579327 C-328.69083746 565.41900008 -328.69363513 564.76220689 -328.69651759 564.08551088 C-328.70345473 561.89323079 -328.69623018 559.70123278 -328.6890564 557.50895691 C-328.69119591 555.91786812 -328.69422204 554.32678031 -328.69805682 552.73569471 C-328.70608982 548.36978013 -328.70179337 544.00395134 -328.69553804 539.63803709 C-328.6910024 534.92694349 -328.69804544 530.2158662 -328.70384216 525.504776 C-328.71247387 517.34231672 -328.71428359 509.17987911 -328.71189499 501.017416 C-328.70879727 489.20498388 -328.72043654 477.39259967 -328.73644479 465.58017961 C-328.76240706 446.40070671 -328.78242564 427.22123377 -328.79589844 408.04174805 C-328.79670881 406.89395236 -328.79751918 405.74615667 -328.7983541 404.5635793 C-328.80957512 388.27564541 -328.81485666 371.98771494 -328.81774123 355.6997777 C-328.81794522 354.55289159 -328.81814921 353.40600547 -328.81835938 352.22436523 C-328.81855931 351.07887804 -328.81875925 349.93339084 -328.81896524 348.75319191 C-328.82269868 329.64890638 -328.84178727 310.54467281 -328.87345374 291.4404133 C-328.89236531 279.65901813 -328.89833165 267.87775622 -328.88763656 256.09635005 C-328.88131575 248.02232187 -328.88936283 239.94838921 -328.90869068 231.87438198 C-328.91936905 227.21692879 -328.92353019 222.55970762 -328.91021919 217.90225601 C-328.89814701 213.63539623 -328.90455365 209.36897099 -328.92541118 205.10214881 C-328.92970495 203.56181712 -328.92729925 202.02144845 -328.91737001 200.48114278 C-328.85530253 190.09557261 -329.45078649 181.07484776 -336.6875 173.0625 C-344.26012481 166.18714043 -352.03910921 165.00140345 -362.0234375 164.40234375 C-362.72522125 164.35936661 -363.427005 164.31638947 -364.15005493 164.27210999 C-366.37070322 164.13679141 -368.591583 164.00582642 -370.8125 163.875 C-372.32684038 163.78349173 -373.84116353 163.69169771 -375.35546875 163.59960938 C-379.04928562 163.37560168 -382.74332286 163.15549516 -386.4375 162.9375 C-383.30092907 159.53314015 -379.56872462 157.97129156 -375.3984375 156.12109375 C-374.58255157 155.75282974 -373.76666565 155.38456573 -372.92605591 155.00514221 C-370.22457037 153.78821641 -367.51865988 152.58149136 -364.8125 151.375 C-362.90932001 150.52059471 -361.00632796 149.66577065 -359.10351562 148.81054688 C-345.5702303 142.73863837 -331.99241427 136.7686804 -318.40072632 130.82888794 C-305.26394848 125.0874174 -292.17962343 119.23831372 -279.125 113.3125 C-266.31131872 107.49669741 -253.48795731 101.70610357 -240.625 96 C-239.90950989 95.68257843 -239.19401978 95.36515686 -238.45684814 95.03811646 C-234.7375653 93.38847912 -231.01779872 91.73993554 -227.29785156 90.09179688 C-218.02896663 85.98447783 -208.76467257 81.8668093 -199.5 77.75 C-198.04562027 77.10383224 -198.04562027 77.10383224 -196.56185913 76.4446106 C-184.23853554 70.96899627 -171.92391483 65.47493234 -159.62329102 59.94848633 C-147.41782888 54.46977502 -135.18826448 49.04541001 -122.9609375 43.61572266 C-111.61117289 38.57533412 -100.26548354 33.52669004 -88.9375 28.4375 C-77.23611372 23.18379854 -65.52444161 17.95330982 -53.80664062 12.73632812 C-51.79120703 11.83871968 -49.77606343 10.94045977 -47.76123047 10.04150391 C-44.92106808 8.7745152 -42.0798096 7.51001545 -39.23828125 6.24609375 C-38.39771683 5.8705687 -37.5571524 5.49504364 -36.69111633 5.10813904 C-12.37612507 -5.68887332 -12.37612507 -5.68887332 0 0 Z " fill="#FE0000" transform="translate(386.4375,2.0625)"/>
<path d="M0 0 C0.93057266 -0.00170885 1.86114531 -0.0034177 2.81991714 -0.00517833 C5.91525749 -0.00845334 9.0103775 0.00249755 12.10569763 0.01345825 C14.33359777 0.0140228 16.56149827 0.01370496 18.78939819 0.01257324 C24.82176349 0.01200042 30.85404892 0.02374346 36.88639569 0.03772116 C43.19646628 0.05024015 49.50653878 0.05139994 55.81661987 0.05377197 C66.40257621 0.05927799 76.98850645 0.07176275 87.57444763 0.08963013 C98.47451126 0.10800848 109.37456694 0.1221554 120.27464294 0.13064575 C121.28368768 0.13143392 121.28368768 0.13143392 122.31311715 0.13223802 C125.6880815 0.13484823 129.0630459 0.13737561 132.43801033 0.13986182 C160.40465232 0.16057084 188.37126202 0.1959252 216.33787537 0.24050903 C214.68462872 4.58736152 212.48922923 8.25155287 209.87303162 12.07644653 C209.43201614 12.72930634 208.99100067 13.38216614 208.53662109 14.05480957 C207.60693289 15.43004716 206.6751878 16.80389625 205.74150085 18.17642212 C204.38838913 20.16622655 203.04143452 22.16003337 201.69676208 24.1555481 C199.50439917 27.4077401 197.30636322 30.65603987 195.10569763 33.90261841 C193.7713775 35.87140788 192.43836958 37.8410813 191.10545349 39.81082153 C190.22337043 41.11295798 189.34121154 42.41504306 188.45896912 43.71707153 C188.07744186 44.28100616 187.69591461 44.8449408 187.30282593 45.42596436 C186.5130275 46.59033483 185.70910083 47.74523348 184.89210987 48.89068794 C183.22659302 51.32876434 183.22659302 51.32876434 181.63583755 54.42959976 C178.87020962 59.37096246 176.5210388 63.45531871 171.02751255 65.43110466 C166.96332903 65.8609727 163.0758712 65.88411541 158.99925232 65.76052856 C157.46086661 65.76181469 155.92247662 65.7688751 154.38414001 65.78123474 C150.22766871 65.79881106 146.07573116 65.73722133 141.92005181 65.66176462 C137.56272828 65.59718646 133.205634 65.60900442 128.84793091 65.61328125 C120.59910992 65.61040671 112.35215363 65.54407514 104.10388774 65.45251358 C91.99815137 65.32055258 79.89201784 65.27441186 67.78565502 65.24012566 C66.89677839 65.23758408 66.00790176 65.2350425 65.09208947 65.2324239 C63.31957594 65.22740085 61.54706186 65.22256605 59.77454728 65.21792495 C54.59171221 65.20207435 49.4096157 65.16437414 44.2270714 65.10756421 C41.00372575 65.07413462 37.78036338 65.05228112 34.55690765 65.0325985 C33.06452634 65.02064962 31.57217635 65.00342213 30.07992363 64.98047447 C28.03983394 64.94958905 25.99946796 64.93894653 23.95916748 64.92926025 C22.81861562 64.91698458 21.67806376 64.9047089 20.50294971 64.89206123 C15.70326788 65.42046543 12.43881054 67.10899232 9.08787537 70.55300903 C5.77926267 75.63409281 4.72421825 80.20621406 5.33787537 86.24050903 C6.80684491 91.16489556 8.37932561 94.45801943 12.40037537 97.74050903 C16.5479945 99.85844221 19.46212079 100.36526569 24.0644989 100.36508179 C25.85562607 100.36892632 25.85562607 100.36892632 27.68293762 100.37284851 C28.99509247 100.37074875 30.30724731 100.36864899 31.65916443 100.3664856 C33.05397092 100.36788055 34.44877698 100.36977998 35.84358215 100.37214661 C38.85065806 100.37664555 41.85772031 100.37849974 44.8647995 100.3786087 C49.63269491 100.37975072 54.40051315 100.39260453 59.16838074 100.40817261 C59.97406313 100.41074546 60.77974553 100.41331831 61.60984254 100.41596913 C63.25780493 100.42123616 64.90576726 100.42652164 66.55372953 100.43182516 C77.65171149 100.46686584 88.7495991 100.4934978 99.84764099 100.49099731 C107.33448062 100.48940115 114.82105775 100.50562561 122.30781341 100.54170394 C126.26381293 100.56005201 130.21937495 100.56960633 134.17540741 100.55722809 C137.90867578 100.54566168 141.64116645 100.55779189 145.37433243 100.58686256 C147.37170048 100.59650928 149.36914159 100.58186918 151.36647034 100.5660553 C167.61603202 100.74923586 180.96778826 106.5366105 192.86521912 117.58816528 C207.85789805 133.34969955 214.7762506 153.04658601 214.65037537 174.55300903 C214.64546082 175.55630249 214.64054626 176.55959595 214.63548279 177.59329224 C214.32593724 197.29467568 207.19932021 216.64076423 193.56053162 231.14675903 C181.52288249 242.48626682 167.82757802 248.58741474 151.34043884 248.48101807 C150.36171798 248.48272692 149.38299712 248.48443577 148.37461805 248.4861964 C145.11034178 248.48947845 141.84627318 248.47850873 138.58201599 248.46755981 C136.23603826 248.46699542 133.89006017 248.46731281 131.54408264 248.46844482 C125.18522401 248.46901825 118.82644095 248.45726553 112.46759987 248.44329691 C106.49246249 248.43205577 100.51732499 248.43004962 94.54217905 248.42799316 C82.71136828 248.42362161 70.88058518 248.41032719 59.04978943 248.39138794 C47.56085854 248.37301515 36.07193518 248.3588655 24.58299255 248.35037231 C23.87418939 248.34984687 23.16538623 248.34932142 22.43510419 248.34878005 C18.87906036 248.34616988 15.32301647 248.34364248 11.76697254 248.34115624 C-17.70941101 248.32044056 -47.18576753 248.28508054 -76.66212463 248.24050903 C-75.86316542 246.79152188 -75.06288981 245.34326052 -74.26205444 243.89530945 C-73.81654141 243.08873178 -73.37102839 242.2821541 -72.91201496 241.45113468 C-71.61093013 239.14996358 -70.21644349 236.97687364 -68.67384338 234.83035278 C-68.14033264 234.08003784 -67.6068219 233.3297229 -67.05714417 232.55667114 C-66.49366272 231.77171265 -65.93018127 230.98675415 -65.34962463 230.17800903 C-59.17274533 221.47377183 -53.21246937 212.64175071 -47.34449768 203.72659302 C-46.1267284 201.8838435 -44.89297613 200.05150512 -43.63970757 198.23271275 C-41.64004788 195.3097545 -41.64004788 195.3097545 -40.11285591 192.33022213 C-37.45560219 187.78535376 -35.45879932 184.76905153 -30.27216721 183.24325752 C-25.95223168 182.87133751 -21.75610746 182.85769716 -17.42726135 182.96340942 C-15.78065755 182.96319796 -14.13404821 182.95808287 -12.48747253 182.94845581 C-8.95292496 182.93832511 -5.42093908 182.96277358 -1.88676071 183.01454353 C3.70268206 183.09635171 9.29062644 183.10148168 14.88056946 183.09681702 C23.72058686 183.09863843 32.55939228 183.15293499 41.3990525 183.22908443 C57.23280083 183.36400619 73.06690162 183.41448559 88.90117061 183.43852228 C94.45618281 183.4490975 100.01035089 183.48418237 105.56509042 183.53968537 C109.02008265 183.57099877 112.4750253 183.58637718 115.93013382 183.59811401 C117.53055863 183.60715246 119.13096176 183.62314966 120.73123932 183.64666557 C122.91858697 183.67802309 125.10471007 183.68464099 127.29225159 183.68547058 C128.51522005 183.69607041 129.73818851 183.70667025 130.99821663 183.71759129 C136.37650104 182.94928403 139.40080267 180.42417981 142.71287537 176.24050903 C145.30295442 171.22290819 144.96294951 165.72134207 144.33787537 160.24050903 C142.50938441 154.85127254 139.41571125 151.77942698 134.33787537 149.24050903 C132.52181702 149.14153686 130.70210926 149.10707596 128.88336182 149.10247803 C127.14478157 149.09429802 127.14478157 149.09429802 125.37107849 149.08595276 C124.09273132 149.08491043 122.81438416 149.0838681 121.49729919 149.08279419 C120.14204748 149.07812636 118.78679732 149.07298284 117.43154907 149.06739807 C114.50685587 149.05610442 111.58217293 149.04767583 108.65746498 149.04127884 C104.01986541 149.03058887 99.38233859 149.01033597 94.74478149 148.98815918 C81.55457437 148.92628594 68.36436952 148.8724021 55.17405701 148.83914185 C47.89346042 148.82070269 40.61298395 148.79164211 33.33247584 148.75113714 C29.4849953 148.73020288 25.63766535 148.71462956 21.79012489 148.71232986 C18.15798266 148.71015674 14.52615261 148.69402173 10.89410591 148.66794014 C8.95161308 148.65750211 7.00905885 148.66145845 5.06654358 148.66612244 C-14.33924914 148.48608883 -29.80279415 143.34470402 -43.66212463 129.24050903 C-58.2028869 114.41009015 -64.4002539 94.5143566 -64.84962463 74.05300903 C-64.55052373 52.54765415 -57.41460197 33.00047263 -42.66212463 17.24050903 C-30.74141853 5.76355172 -16.42129795 -0.11213331 0 0 Z " fill="#FE0000" transform="translate(1491.662124633789,176.75949096679688)"/>
<path d="M0 0 C1.11117691 -0.0071553 2.22235382 -0.01431061 3.36720276 -0.02168274 C4.5719223 -0.02437164 5.77664185 -0.02706055 7.01786804 -0.02983093 C8.29841568 -0.03640213 9.57896332 -0.04297333 10.89831543 -0.04974365 C15.13436143 -0.07069999 19.37040741 -0.08114439 23.60649109 -0.09111023 C25.07279668 -0.0951622 26.5391021 -0.09927925 28.00540733 -0.10346031 C34.90333721 -0.12250067 41.80125653 -0.13672901 48.6992076 -0.14507228 C56.61894524 -0.1548132 64.53840105 -0.18105466 72.45803958 -0.22157317 C78.60529903 -0.25192574 84.75247863 -0.26655947 90.89981145 -0.26985329 C94.55848085 -0.27218383 98.21684889 -0.28087785 101.87543678 -0.30631447 C131.15499818 -0.49946869 131.15499818 -0.49946869 145.30570984 4.14717102 C146.15029251 4.42221466 146.99487518 4.6972583 147.86505127 4.9806366 C174.51967379 14.57929827 194.03499947 36.4007878 205.99320984 61.45967102 C214.79548354 80.65677565 217.85560105 100.62726402 217.69682312 121.62666321 C217.68071049 124.14706984 217.69680947 126.66587402 217.71586609 129.18623352 C217.74397652 150.45422498 214.09943106 171.09953999 204.30570984 190.14717102 C204.00713074 190.73965637 203.70855164 191.33214172 203.40092468 191.94258118 C190.34343777 217.57442155 169.31043636 236.11942001 141.95663452 245.2671814 C128.14247033 249.06905287 114.20496748 248.71977034 99.98455644 248.65154147 C96.31830534 248.63748865 92.65207778 248.64417334 88.98580933 248.64767456 C82.83756005 248.65035995 76.68950788 248.63704305 70.54130554 248.61372375 C63.47077153 248.58708892 56.40056584 248.58538451 49.32999879 248.59711212 C42.47476563 248.60795224 35.61964923 248.60165655 28.76442528 248.58755684 C25.87044646 248.58185434 22.97655472 248.58183369 20.08257484 248.58662224 C16.03023035 248.59235358 11.97836167 248.5729227 7.92607117 248.55122375 C6.16213516 248.55797623 6.16213516 248.55797623 4.36256409 248.56486511 C-21.32951413 248.33809944 -43.59389221 236.82513646 -61.88179016 219.39717102 C-74.13008012 206.67244839 -82.80761398 191.40731644 -88.50679016 174.77217102 C-88.78482483 173.97158264 -89.0628595 173.17099426 -89.34931946 172.34614563 C-94.18858522 157.4276542 -95.1847449 142.72399593 -95.08540344 127.1452179 C-95.06930867 124.15061413 -95.08535093 121.15735943 -95.10444641 118.16279602 C-95.12284312 102.7058984 -93.60602612 88.20927164 -88.50679016 73.52217102 C-88.05614197 72.20370178 -88.05614197 72.20370178 -87.59638977 70.8585968 C-77.79572978 43.17872919 -57.74623585 20.17443306 -31.25679016 7.39717102 C-21.43241927 3.13322119 -10.75439795 0.04784618 0 0 Z M-19.69429016 81.14717102 C-26.07235029 91.85219705 -28.84302485 101.91046002 -28.86225891 114.35420227 C-28.86558731 115.11963852 -28.86891571 115.88507477 -28.87234497 116.67370605 C-28.87737977 118.28472803 -28.87975437 119.89576032 -28.8795929 121.50679016 C-28.88177472 123.94243473 -28.89995434 126.37762222 -28.91889954 128.81318665 C-28.97966604 145.15226336 -26.76629748 160.95818689 -14.69429016 173.14717102 C-5.44769351 180.89799468 2.72262983 183.60314256 14.61186218 183.55122375 C16.27201103 183.56151863 16.27201103 183.56151863 17.96569824 183.57202148 C21.60781347 183.59025469 25.24949646 183.58645648 28.89164734 183.58076477 C31.43458699 183.58532845 33.9775254 183.59063458 36.52046204 183.59664917 C41.84476823 183.60557367 47.16891837 183.60340029 52.49320984 183.59321594 C58.6258729 183.5817437 64.75809817 183.59580261 70.89070356 183.62261242 C76.81633406 183.64753635 82.74182986 183.649931 88.6675148 183.64349556 C91.17681735 183.64334262 93.68612844 183.64936408 96.19540024 183.66178703 C99.71084977 183.67673921 103.22534775 183.66598733 106.74076843 183.64888 C107.76758224 183.65854797 108.79439606 183.66821594 109.85232544 183.67817688 C121.18887152 183.56322159 129.74785533 179.30901982 137.92289734 171.62763977 C147.15802847 161.79437838 150.60843685 149.33465289 150.64164734 136.19795227 C150.64830414 135.26347763 150.65496094 134.32900299 150.66181946 133.36621094 C150.67189616 131.39714001 150.67663803 129.42803528 150.67631531 127.4589386 C150.68067231 124.48528567 150.71700082 121.51313866 150.75492859 118.53974915 C150.85363338 102.06122958 148.64255789 88.65112508 137.27445984 75.86201477 C124.2812706 63.2689781 109.52866908 64.41679117 92.54789734 64.51826477 C90.03309527 64.517435 87.51829326 64.51497155 85.00349426 64.51095581 C79.75009204 64.50810687 74.49701314 64.52217486 69.24369812 64.55024719 C63.19498663 64.58232339 57.14691999 64.58226372 51.09816253 64.56503242 C45.24401626 64.54909922 39.3901053 64.55604375 33.53596878 64.57296944 C31.06017201 64.57813244 28.58435669 64.57769245 26.10856247 64.57142448 C22.64376795 64.56594335 19.18004952 64.58644074 15.71537781 64.61372375 C14.70419891 64.60719788 13.69302002 64.600672 12.65119934 64.59394836 C-0.52707097 64.76942254 -11.42840385 70.97123926 -19.69429016 81.14717102 Z " fill="#FE0000" transform="translate(872.6942901611328,176.8528289794922)"/>
<path d="M0 0 C0.79570967 0.00582568 1.59141933 0.01165137 2.41124141 0.01765358 C3.25416205 0.01594473 4.09708268 0.01423589 4.96554637 0.01247525 C7.80624343 0.00916595 10.64670726 0.02020764 13.48738277 0.03111184 C15.51720856 0.03167564 17.54703476 0.03136 19.57686031 0.03022683 C25.10139452 0.02965111 30.62584254 0.04144081 36.15035665 0.05537474 C41.9186086 0.06784566 47.68686234 0.06904972 53.45512569 0.07142556 C64.38444573 0.07765105 75.31372593 0.0940763 86.2430284 0.11412454 C98.68297765 0.13645032 111.12292875 0.1474686 123.56289303 0.15751541 C149.15867605 0.17844163 174.75442367 0.21363833 200.35017574 0.25816262 C199.10748004 3.44537072 197.8675175 6.21552018 195.90876949 9.02378762 C195.41610591 9.73631691 194.92344234 10.44884621 194.41584957 11.18296731 C193.60990352 12.33393898 193.60990352 12.33393898 192.78767574 13.50816262 C191.61268493 15.20572526 190.43823408 16.90366173 189.26423824 18.60191262 C188.31919429 19.96509621 188.31919429 19.96509621 187.35505855 21.35581887 C183.76374919 26.55473335 180.21466333 31.78234105 176.66267574 37.00816262 C175.98712642 37.99977395 175.31157711 38.99138527 174.6155566 40.01304543 C173.94661373 40.99627785 173.27767086 41.97951027 172.58845699 42.99253762 C171.57939296 44.39414383 171.57939296 44.39414383 170.5499438 45.82406533 C168.93543188 48.18050473 167.84120808 50.42710265 166.84439266 53.09979165 C164.87925334 57.75449522 162.65737646 61.45887642 158.35017574 64.25816262 C149.13710581 66.91708952 138.97828013 66.05201265 129.47002161 65.77907169 C125.62941139 65.68479249 121.78859681 65.67645248 117.94700801 65.65869057 C110.68542776 65.61221087 103.42726676 65.48933619 96.16718721 65.33844823 C87.8967394 65.1703226 79.62612125 65.08820115 71.35438788 65.0130167 C54.35067087 64.85655186 37.35165954 64.58168123 20.35017574 64.25816262 C20.35017574 73.49816262 20.35017574 82.73816262 20.35017574 92.25816262 C79.75017574 92.25816262 139.15017574 92.25816262 200.35017574 92.25816262 C198.67946251 96.43494569 197.10002364 99.34129152 194.59626949 102.99253762 C194.22317653 103.53959359 193.85008358 104.08664956 193.46568477 104.65028298 C192.2441016 106.43931165 191.01591181 108.2236965 189.78767574 110.00816262 C188.9362012 111.25278764 188.08521433 112.49774642 187.23469722 113.7430259 C185.48212914 116.30787715 183.72715915 118.8710584 181.97029293 121.43296731 C177.93403755 127.32142828 173.92493701 133.22834192 169.91267574 139.13316262 C169.21005611 140.16537941 168.50743648 141.19759621 167.78352535 142.26109231 C167.12618404 143.22692238 166.46884273 144.19275246 165.79158199 145.18785012 C165.2212524 146.02557961 164.65092281 146.8633091 164.0633105 147.72642434 C162.22981893 150.25258561 162.22981893 150.25258561 161.06323421 153.37382424 C157.87312154 156.76533404 157.11248579 156.72669312 152.630144 156.97968972 C150.16282276 156.99713316 147.69513582 156.98102112 145.22810543 156.93931496 C143.86792756 156.93762213 142.50774421 156.93857328 141.14756954 156.94196999 C137.45736087 156.94369181 133.76832197 156.90841413 130.07838523 156.86652625 C126.2213902 156.82902194 122.36436843 156.82549417 118.5072192 156.8183738 C111.20432125 156.79972388 103.90196212 156.7504855 96.59930146 156.69027686 C88.28505375 156.62321576 79.97078033 156.59022383 71.65632951 156.56010425 C54.55391308 156.49738588 37.45223885 156.38735229 20.35017574 156.25816262 C20.35017574 165.49816262 20.35017574 174.73816262 20.35017574 184.25816262 C26.23760616 184.25030739 26.23760616 184.25030739 32.24397457 184.24229348 C45.39931311 184.22551774 58.55465156 184.21454561 71.70999801 184.20635045 C79.66452584 184.20126024 87.61904322 184.19433518 95.57356441 184.18272316 C130.51103283 184.13269957 165.42592249 184.13262319 200.35017574 185.25816262 C198.9523775 188.10109467 197.4518569 190.72861192 195.69001949 193.36363137 C195.15207759 194.16993996 194.6141357 194.97624856 194.05989254 195.80699074 C193.47506099 196.67775246 192.89022945 197.54851418 192.28767574 198.44566262 C191.67641841 199.3589634 191.06516109 200.27226418 190.43538082 201.21324074 C175.06449951 224.139301 175.06449951 224.139301 169.50852573 232.01998913 C167.30009511 235.21389597 167.30009511 235.21389597 165.56859577 238.63373387 C160.52451439 247.53035948 160.52451439 247.53035948 154.80360973 249.44528306 C150.41557358 250.05217403 146.03891274 249.91476898 141.62214839 249.79746926 C139.93423828 249.80035443 138.24632983 249.80891574 136.55847347 249.82269204 C131.99269978 249.84344034 127.43120628 249.78367704 122.86614454 249.70801008 C118.0761407 249.64134553 113.28616662 249.64571518 108.4957751 249.64132607 C100.45040852 249.62382323 92.40664988 249.55780089 84.36189449 249.45860207 C74.05992514 249.33179338 63.75917195 249.28324745 53.45650852 249.2602464 C44.57190345 249.239942 35.68755772 249.18521315 26.80315149 249.12416828 C23.96111375 249.1058792 21.11907776 249.09192574 18.27701366 249.07843125 C13.79671858 249.05481033 9.3171028 249.00967538 4.83716953 248.94840729 C3.20026541 248.92886779 1.56326823 248.91579603 -0.07374203 248.90994179 C-14.26282888 248.85090161 -24.88748264 246.40527599 -35.48576176 236.55113137 C-47.35906898 224.23711187 -48.90105262 208.42343003 -49.13078129 192.15562356 C-49.15647703 190.77260727 -49.18274923 189.38960159 -49.20954716 188.00660622 C-49.44069593 175.41283428 -49.55464686 162.81608651 -49.64308178 150.22059166 C-49.70934759 140.94644214 -49.82817728 131.67623549 -50.01810384 122.4037751 C-50.14786824 115.84109828 -50.21431705 109.27947885 -50.23658085 102.71556985 C-50.25152606 98.8156223 -50.29228511 94.92046124 -50.40263569 91.02194893 C-50.94906568 70.8263948 -48.28510377 57.33704177 -34.53234303 41.48744881 C-31.92533161 38.40021554 -29.74677568 35.10316951 -27.58732426 31.69566262 C-26.82776574 30.5431943 -26.06629073 29.39198481 -25.30216801 28.24253762 C-24.69477787 27.32698098 -24.69477787 27.32698098 -24.07511723 26.39292824 C-20.95937182 21.72624824 -17.80431456 17.08619872 -14.64982426 12.44566262 C-13.9897437 11.4710508 -13.32966313 10.49643898 -12.64958012 9.49229348 C-11.72157597 8.12923073 -11.72157597 8.12923073 -10.77482426 6.73863137 C-10.22052739 5.9228965 -9.66623051 5.10716164 -9.09513676 4.26670754 C-6.27745256 0.35098322 -4.78112205 0.02638568 0 0 Z " fill="#FE0000" transform="translate(1780.6498242616653,176.7418373823166)"/>
<path d="M0 0 C1.55126612 0.0360842 3.10250501 0.07335522 4.65371704 0.11169434 C6.30380995 0.10852724 7.95389982 0.10012703 9.60394287 0.08691406 C14.07277636 0.06643085 18.53790483 0.12040778 23.00614357 0.18902206 C27.69907847 0.24941005 32.39197721 0.24447635 37.0852356 0.24768066 C44.97426045 0.26243971 52.86189106 0.32221137 60.75039673 0.41247559 C70.83331255 0.5276244 80.91510172 0.56934481 90.99860382 0.58720398 C99.70951282 0.60321657 108.42018318 0.65323048 117.1309185 0.70859146 C119.90843531 0.72487728 122.685944 0.73663599 125.46348572 0.74777222 C129.85676094 0.76758009 134.24938199 0.80877535 138.64233017 0.86552429 C140.24166305 0.88337498 141.84108293 0.89491249 143.4405098 0.89915466 C166.76368649 0.97479209 185.65016749 8.19800018 202.53067017 24.61560059 C217.5712842 40.57224416 227.56801289 63.51244819 228.39395142 85.53747559 C228.47129517 87.36278809 228.47129517 87.36278809 228.55020142 89.22497559 C229.28290174 115.08838478 222.03365343 141.11106343 204.39395142 160.53747559 C203.62180298 161.39083496 202.84965454 162.24419434 202.05410767 163.12341309 C187.74304068 178.18055465 168.95921853 186.02220442 148.32648849 186.62745857 C144.83930148 186.65983767 141.35344301 186.66122433 137.86611938 186.65100098 C136.54792709 186.651147 135.2297348 186.65129303 133.87159729 186.65144348 C130.28757908 186.65172825 126.70359492 186.64588369 123.11958456 186.63886952 C119.36266348 186.63258229 115.60574145 186.63202796 111.84881592 186.63084412 C104.74824005 186.62774655 97.64767973 186.61955454 90.54711068 186.60949463 C80.9424305 186.59618479 71.33774601 186.59082086 61.73305893 186.58499241 C46.62001146 186.57561347 31.5069968 186.55568407 16.39395142 186.53747559 C16.39395142 207.32747559 16.39395142 228.11747559 16.39395142 249.53747559 C-6.37604858 249.53747559 -29.14604858 249.53747559 -52.60604858 249.53747559 C-53.04938196 215.00225338 -53.04938196 215.00225338 -53.14315796 200.51794434 C-53.20840326 190.52073015 -53.28505403 180.52453653 -53.43588257 170.52819824 C-53.54568575 163.24737906 -53.6165259 155.96738848 -53.64102203 148.68576431 C-53.65533816 144.8313155 -53.68885541 140.97923658 -53.76907921 137.12554932 C-53.84407173 133.49353526 -53.86671809 129.86485243 -53.85023308 126.23213768 C-53.85467629 124.27231054 -53.91371793 122.31284224 -53.97467041 120.35395813 C-53.86593154 111.8643959 -53.86593154 111.8643959 -50.20560646 108.00930786 C-47.42031189 105.96262718 -44.62067201 104.22233641 -41.60604858 102.53747559 C-40.34029481 101.67780103 -39.08190999 100.80683819 -37.84042358 99.91247559 C-36.67990854 99.11942679 -35.51842737 98.32779017 -34.35604858 97.53747559 C-29.55330275 94.25531307 -24.76347775 90.95592828 -19.99276733 87.62731934 C-19.00889038 86.94089355 -18.02501343 86.25446777 -17.01132202 85.54724121 C-15.10356242 84.21513661 -13.19659435 82.88189731 -11.2906189 81.54724121 C-3.46882453 76.08836733 4.45108016 70.83272309 12.39395142 65.53747559 C-20.27604858 65.04247559 -20.27604858 65.04247559 -53.60604858 64.53747559 C-48.02271525 54.48747559 -48.02271525 54.48747559 -44.79354858 50.22497559 C-41.35241848 45.58776495 -38.11894585 40.85582884 -34.93807983 36.03747559 C-31.52984615 30.89549485 -28.02058213 25.82160653 -24.52523804 20.73864746 C-24.00534302 19.98132324 -23.485448 19.22399902 -22.94979858 18.44372559 C-22.43143684 17.71509811 -21.9130751 16.98647064 -21.37900543 16.23576355 C-19.53229801 13.54593098 -19.53229801 13.54593098 -18.10114288 10.48347473 C-13.56392746 1.97936191 -9.43610896 0.01545471 0 0 Z M16.39395142 64.53747559 C16.39395142 83.67747559 16.39395142 102.81747559 16.39395142 122.53747559 C39.07224377 122.68775894 39.07224377 122.68775894 61.75060654 122.78874493 C69.86331623 122.81641743 77.97576798 122.85151082 86.08828735 122.91467285 C92.51286449 122.96466895 98.93724669 122.99680453 105.36201298 123.00791806 C108.76077175 123.01440971 112.15897308 123.02955523 115.55755234 123.06612587 C119.36126159 123.10255571 123.16382554 123.10741476 126.96768188 123.10510254 C128.638964 123.13206711 128.638964 123.13206711 130.3440094 123.15957642 C138.7633134 123.10439451 145.42993532 121.06963953 151.79629517 115.39685059 C157.95740661 106.93120128 160.67537514 99.09465971 159.39395142 88.53747559 C157.45683832 80.08566664 153.61156244 73.36446534 146.56192017 68.19372559 C141.57008027 65.14859449 136.98272121 64.41120462 131.23701477 64.41722107 C129.71215706 64.41515907 129.71215706 64.41515907 128.15649414 64.41305542 C127.0523819 64.4166507 125.94826965 64.42024597 124.81069946 64.4239502 C123.63954086 64.42380417 122.46838226 64.42365814 121.26173401 64.42350769 C117.39302718 64.42420401 113.52436858 64.43198336 109.65567017 64.43981934 C106.97238585 64.44168451 104.2891042 64.44315714 101.6058197 64.44410706 C95.26651977 64.44721228 88.92723713 64.45541477 82.58794481 64.46545655 C74.66065346 64.47774061 66.73335929 64.4832066 58.80606079 64.48864746 C44.66867754 64.49838065 30.531332 64.51841395 16.39395142 64.53747559 Z " fill="#FE0000" transform="translate(1171.6060485839844,175.4625244140625)"/>
<path d="M0 0 C0.06975897 8.58024734 0.12294189 17.16037458 0.15543652 25.74083614 C0.17103868 29.72584547 0.19217616 33.71065961 0.22631836 37.69555664 C0.25910783 41.54702718 0.27689392 45.39831092 0.28463173 49.24991035 C0.29014033 50.71340433 0.30089662 52.17688902 0.31719017 53.64030266 C0.42330757 63.57363503 0.44118105 73.63614832 -6.8125 81.2734375 C-12.23146323 85.55054777 -18.74490466 88.1802209 -25 91 C-26.00949707 91.45568359 -27.01899414 91.91136719 -28.05908203 92.38085938 C-33.77313284 94.94984911 -39.49915275 97.49037534 -45.234375 100.01171875 C-49.52969353 101.90143938 -53.81146251 103.81597511 -58.078125 105.76953125 C-59.46016113 106.40097046 -59.46016113 106.40097046 -60.87011719 107.04516602 C-62.58111708 107.82903015 -64.29021561 108.61706241 -65.99707031 109.40991211 C-66.75084961 109.75417236 -67.50462891 110.09843262 -68.28125 110.453125 C-69.25674805 110.90413574 -69.25674805 110.90413574 -70.25195312 111.36425781 C-72 112 -72 112 -75 112 C-74.99631283 112.89360702 -74.99262566 113.78721403 -74.98882675 114.70790005 C-74.90042947 136.46695988 -74.83426784 158.22598869 -74.79275131 179.98519039 C-74.77213978 190.5078521 -74.74404606 201.03039382 -74.69824219 211.55297852 C-74.65833136 220.72613197 -74.63255695 229.89919852 -74.62364602 239.07243639 C-74.61843848 243.92811472 -74.60622815 248.78354446 -74.57707977 253.63914299 C-74.54984361 258.21344695 -74.54157155 262.78740091 -74.54756927 267.36177826 C-74.5464727 269.03668942 -74.53856773 270.71161281 -74.5231781 272.38645363 C-74.43855591 282.07451095 -74.49403828 290.33082529 -80.7782135 298.23725891 C-85.91582118 302.50440699 -91.17658192 305.31179706 -97.30859375 307.91796875 C-98.27475113 308.34249832 -99.24090851 308.76702789 -100.23634338 309.204422 C-103.29760544 310.54587842 -106.36714524 311.86700824 -109.4375 313.1875 C-111.49342656 314.08393908 -113.54877099 314.9817145 -115.60351562 315.88085938 C-120.2351571 317.90515933 -124.87208399 319.91666228 -129.51535034 321.91415405 C-131.19890508 322.6499041 -132.8751969 323.4024602 -134.54446411 324.17007446 C-135.34326996 324.53716522 -136.14207581 324.90425598 -136.96508789 325.2824707 C-137.67137833 325.612939 -138.37766876 325.94340729 -139.10536194 326.28388977 C-141 327 -141 327 -144 327 C-144 266.61 -144 206.22 -144 144 C-152.58 147.96 -161.16 151.92 -170 156 C-165.9354582 160.0645418 -164.41499953 161.35932566 -159.74853516 163.67602539 C-156.14431007 166.16955729 -155.14348859 167.39087214 -154.12567139 171.7116394 C-153.708435 176.5362946 -153.87491733 181.34965688 -154.0234375 186.18359375 C-154.04210554 187.96716843 -154.05633225 189.75079465 -154.0663147 191.53443909 C-154.10436821 196.21295544 -154.20247346 200.88833139 -154.31335449 205.56561279 C-154.41593925 210.34474197 -154.461384 215.12438237 -154.51171875 219.90429688 C-154.61873698 229.27090576 -154.78924126 238.63519105 -155 248 C-162.68901729 243.63570873 -162.68901729 243.63570873 -165.98828125 241.22265625 C-166.6848584 240.71613525 -167.38143555 240.20961426 -168.09912109 239.68774414 C-168.82953613 239.15141357 -169.55995117 238.61508301 -170.3125 238.0625 C-171.91533656 236.89579484 -173.51820194 235.72912926 -175.12109375 234.5625 C-175.93304199 233.96953125 -176.74499023 233.3765625 -177.58154297 232.765625 C-181.33943427 230.02212915 -185.1054255 227.28991522 -188.875 224.5625 C-189.61145752 224.02955322 -190.34791504 223.49660645 -191.10668945 222.94750977 C-196.70060321 218.91111947 -202.34174837 214.94554847 -208 211 C-214.68160021 206.34052298 -221.33136209 201.64097295 -227.9375 196.875 C-229.04641602 196.07642578 -229.04641602 196.07642578 -230.17773438 195.26171875 C-230.87060547 194.76027344 -231.56347656 194.25882813 -232.27734375 193.7421875 C-233.17827759 193.09032471 -233.17827759 193.09032471 -234.09741211 192.42529297 C-234.72526611 191.95494629 -235.35312012 191.48459961 -236 191 C-236.85122437 190.44576859 -237.70244873 189.89153717 -238.57946777 189.32051086 C-241 187 -241 187 -241.62818909 183.9980011 C-241.62915085 182.82601669 -241.63011261 181.65403229 -241.63110352 180.4465332 C-241.64183647 179.4724778 -241.64183647 179.4724778 -241.65278625 178.47874451 C-241.66967044 176.33537021 -241.65026601 174.19409024 -241.62890625 172.05078125 C-241.6297355 170.5534803 -241.632197 169.05617945 -241.63621521 167.55888367 C-241.63907363 164.41894149 -241.62437807 161.27971236 -241.59692383 158.13989258 C-241.56298704 154.13626299 -241.56880899 150.13392043 -241.5875864 146.1302309 C-241.59821794 143.03555299 -241.58916085 139.94116832 -241.57420158 136.84651756 C-241.56905428 135.37189801 -241.56945921 133.89724735 -241.57574654 132.42263222 C-241.60399534 121.80807886 -240.49610031 112.76011778 -233.05224609 104.66455078 C-230.46196032 102.56360284 -227.78401222 101.21207215 -224.7890625 99.7421875 C-224.17540833 99.44096985 -223.56175415 99.1397522 -222.92950439 98.82940674 C-216.34771683 95.62920974 -209.66296064 92.66256691 -202.96240234 89.72143555 C-199.02868017 87.99419205 -195.100386 86.25468109 -191.171875 84.515625 C-189.93371033 83.96781372 -189.93371033 83.96781372 -188.67053223 83.40893555 C-179.08787813 79.16301726 -169.54458557 74.83062693 -160 70.5 C-146.98035839 64.59548848 -133.94497328 58.72977757 -120.875 52.9375 C-108.08582138 47.26955035 -95.31697795 41.55812889 -82.5625 35.8125 C-81.29149445 35.24008072 -81.29149445 35.24008072 -79.99481201 34.65609741 C-73.63509893 31.79188811 -67.27580007 28.92675947 -60.91668701 26.06121826 C-46.79978354 19.7005974 -32.66560753 13.37979206 -18.49194336 7.14660645 C-17.04871103 6.51148398 -15.60599458 5.87518784 -14.16381836 5.2376709 C-12.16939088 4.35661023 -10.1729191 3.4803649 -8.17578125 2.60546875 C-6.45742065 1.84979614 -6.45742065 1.84979614 -4.7043457 1.07885742 C-2 0 -2 0 0 0 Z " fill="#FEFCFC" transform="translate(357,65)"/>
<path d="M0 0 C0.85796484 0.00582568 1.71592968 0.01165137 2.59989345 0.01765358 C3.50815092 0.01594473 4.4164084 0.01423589 5.35218883 0.01247525 C8.41399227 0.00916516 11.47557947 0.02020897 14.53736293 0.03111184 C16.72482219 0.03167562 18.91228183 0.03136003 21.09974086 0.03022683 C27.05401087 0.02965104 33.00820093 0.04144182 38.96245229 0.05537474 C45.17914002 0.06784456 51.39582942 0.06904963 57.61252773 0.07142556 C68.0520049 0.07694323 78.49145459 0.08945089 88.93091762 0.10728371 C99.68482237 0.12563459 110.43871913 0.13979497 121.19263637 0.14829934 C121.85522394 0.14882478 122.51781151 0.14935023 123.2004775 0.1498916 C126.5244 0.15250163 129.84832255 0.15502455 133.17224514 0.15751541 C160.75865258 0.17844237 188.34502718 0.2136397 215.9314059 0.25816262 C214.49153013 3.98439833 212.87096021 7.07500576 210.6189059 10.38316262 C209.55156215 11.95710793 209.55156215 11.95710793 208.4626559 13.56285012 C207.61914476 14.79478453 206.77537507 16.02654194 205.9314059 17.25816262 C204.920799 18.73980371 203.9103938 20.2215824 202.9001559 21.70347512 C200.12785411 25.76578344 197.34732021 29.82238863 194.5642184 33.87730324 C193.01741724 36.13274657 191.47391455 38.39040727 189.9314059 40.64878762 C188.99397298 42.01862519 188.0564763 43.38841914 187.1189059 44.75816262 C186.50825283 45.65389992 186.50825283 45.65389992 185.88526332 46.56773293 C182.00991507 52.21950803 177.96803448 57.70779832 173.9314059 63.25816262 C155.4514059 63.25816262 136.9714059 63.25816262 117.9314059 63.25816262 C117.9314059 124.30816262 117.9314059 185.35816262 117.9314059 248.25816262 C95.1614059 248.25816262 72.3914059 248.25816262 48.9314059 248.25816262 C48.9314059 187.20816262 48.9314059 126.15816262 48.9314059 63.25816262 C16.5914059 63.25816262 -15.7485941 63.25816262 -49.0685941 63.25816262 C-44.57065688 55.38677248 -44.57065688 55.38677248 -42.72875035 52.74253762 C-42.31254429 52.14143166 -41.89633824 51.5403257 -41.46751988 50.92100441 C-41.02649937 50.28976662 -40.58547886 49.65852883 -40.1310941 49.00816262 C-39.15034765 47.59299045 -38.16989109 46.17761734 -37.18968785 44.76206887 C-36.67905797 44.02617531 -36.16842808 43.29028176 -35.64232457 42.5320884 C-32.97692225 38.6807764 -30.33617589 34.81265128 -27.6935941 30.94566262 C-27.15831089 30.16360451 -26.62302769 29.38154641 -26.07152379 28.57578957 C-23.18250556 24.35453647 -20.2997077 20.1291637 -17.42406285 15.89878762 C-16.83093297 15.0277842 -16.23780308 14.15678078 -15.62669957 13.25938332 C-14.48462093 11.58204517 -13.34425131 9.90354177 -12.20580113 8.22373879 C-11.43598912 7.09415749 -11.43598912 7.09415749 -10.65062535 5.94175637 C-10.19921177 5.27716408 -9.7477982 4.6125718 -9.28270543 3.92784035 C-6.47653334 0.06871891 -4.67694195 0.02396003 0 0 Z " fill="#FE0000" transform="translate(562.0685940980911,176.7418373823166)"/>
<path d="M0 0 C22.77 0 45.54 0 69 0 C69 61.05 69 122.1 69 185 C123.45 185 177.9 185 234 185 C228.42806077 195.02949062 228.42806077 195.02949062 225.3125 199.125 C222.23077827 203.2778778 219.28686538 207.49797965 216.4375 211.8125 C211.42524987 219.39657509 206.30772265 226.90671579 201.17749023 234.41137695 C200.56462158 235.30816162 199.95175293 236.20494629 199.3203125 237.12890625 C198.77648926 237.92369385 198.23266602 238.71848145 197.67236328 239.53735352 C195.90670891 242.05333421 195.90670891 242.05333421 194.29776001 245.10671711 C192 248 192 248 189.0581665 248.75225353 C187.32829498 248.75369853 187.32829498 248.75369853 185.56347656 248.75517273 C184.91924083 248.76382711 184.27500509 248.77248149 183.61124706 248.78139812 C181.45350361 248.80298091 179.29834072 248.78170211 177.140625 248.76049805 C175.59301013 248.76699209 174.04540422 248.77605373 172.49781799 248.78749084 C168.29252599 248.8105945 164.08814043 248.79583456 159.88287735 248.77302146 C155.47488372 248.75409833 151.06695071 248.76526633 146.65893555 248.77192688 C139.24757526 248.77827176 131.83657722 248.75998658 124.42529297 248.72729492 C115.87967813 248.68990915 107.33475329 248.69152919 98.78910255 248.7143361 C90.55255303 248.73536483 82.31625631 248.72795875 74.07971191 248.70801735 C70.58395078 248.70006917 67.08840568 248.70197754 63.59265137 248.71204185 C59.46211106 248.72267497 55.33236345 248.7082343 51.20194817 248.67529869 C49.6944284 248.66716015 48.18683511 248.66729366 46.6793232 248.67677689 C33.31101101 248.75156621 22.95023026 245.91468639 13.1875 236.44921875 C3.61457973 225.73096695 -0.17248925 212.54990689 -0.12025452 198.41995239 C-0.12110894 197.5695305 -0.12196337 196.71910862 -0.12284368 195.84291637 C-0.12448731 193.00088748 -0.11899542 190.15891796 -0.11352539 187.31689453 C-0.11324325 185.2766266 -0.11340177 183.23635857 -0.1139679 181.1960907 C-0.11425483 175.66148965 -0.10837486 170.12691026 -0.10139394 164.59231424 C-0.09514312 158.80673234 -0.09455523 153.02114994 -0.09336853 147.23556519 C-0.09026032 136.28160153 -0.08205379 125.32764784 -0.07201904 114.37368858 C-0.06084209 101.90220402 -0.05534346 89.43071898 -0.05032361 76.95923066 C-0.03987076 51.30614697 -0.0215316 25.65307695 0 0 Z " fill="#FE0000" transform="translate(2007,177)"/>
<path d="M0 0 C22.77 0 45.54 0 69 0 C69 61.05 69 122.1 69 185 C123.12 185 177.24 185 233 185 C231.27759112 189.30602221 229.33336134 192.73061386 226.73828125 196.49609375 C226.31523712 197.1181218 225.89219299 197.74014984 225.45632935 198.38102722 C224.0795971 200.40299389 222.69618572 202.42028693 221.3125 204.4375 C220.36099819 205.83158785 219.40991044 207.22595839 218.45922852 208.62060547 C216.54910245 211.42140112 214.63640501 214.22041316 212.72167969 217.01806641 C210.27622179 220.59284961 207.84298383 224.17567877 205.4140625 227.76171875 C204.08858369 229.71617433 202.76306581 231.67060342 201.4375 233.625 C200.83784424 234.5111499 200.23818848 235.3972998 199.62036133 236.31030273 C199.06372803 237.12829346 198.50709473 237.94628418 197.93359375 238.7890625 C197.45978271 239.48725098 196.98597168 240.18543945 196.49780273 240.90478516 C196.00352783 241.59620605 195.50925293 242.28762695 195 243 C194.44135569 243.85525741 193.88271137 244.71051481 193.30713844 245.59168911 C191 248 191 248 188.06819725 248.62641239 C186.91972628 248.6269987 185.7712553 248.62758501 184.58798218 248.62818909 C183.94641886 248.63528347 183.30485555 248.64237786 182.64385092 248.64968723 C180.49551768 248.66727961 178.34899103 248.64915899 176.20068359 248.63110352 C174.65967993 248.63624226 173.11868214 248.6435232 171.57769775 248.65278625 C167.39122557 248.67132395 163.20538916 248.65834339 159.01894331 248.63869596 C154.63270801 248.62230982 150.24651303 248.63112312 145.86026001 248.63621521 C138.48762877 248.64073908 131.11525096 248.62485533 123.74267578 248.59692383 C115.2357235 248.56494177 106.72923013 248.56485899 98.22224557 248.5821386 C90.02736406 248.59804739 81.83264971 248.59123761 73.63777542 248.57420158 C70.15713642 248.56735342 66.67663233 248.56834072 63.19599533 248.57574654 C59.08690585 248.58345218 54.97833299 248.57114497 50.86933136 248.54389763 C49.36741544 248.53705457 47.86545089 248.53687166 46.36353683 248.54411316 C32.89590644 248.60152545 23.22080962 245.75388245 13.0625 236.625 C3.75840931 227.0887535 -0.33645412 214.13884547 -0.24050903 201.06555176 C-0.24221788 200.20117036 -0.24392673 199.33678897 -0.24568737 198.4462142 C-0.24896435 195.56887439 -0.23800824 192.69177121 -0.22705078 189.81445312 C-0.22648628 187.74433396 -0.22680399 185.67421439 -0.22793579 183.60409546 C-0.22850878 177.99727474 -0.21676305 172.39053988 -0.20278788 166.78373909 C-0.19027166 160.91942914 -0.18910931 155.05511715 -0.18673706 149.1907959 C-0.18052492 138.09167922 -0.16411767 126.99260202 -0.14403808 115.89350271 C-0.12167083 103.25511093 -0.11068357 90.61671724 -0.10064721 77.97831059 C-0.07975123 51.98551347 -0.04307828 25.99277047 0 0 Z " fill="#FE0000" transform="translate(2267,177)"/>
<path d="M0 0 C4.56367471 1.82546988 7.90302063 3.95421137 11.75 6.875 C13.09142081 7.87637736 14.43390887 8.87632631 15.77734375 9.875 C16.4719873 10.39191406 17.16663086 10.90882813 17.88232422 11.44140625 C21.32155121 13.97265194 24.81603353 16.4237348 28.3125 18.875 C35.14668881 23.67246833 41.92756708 28.53904007 48.6730957 33.46044922 C49.36878662 33.96592285 50.06447754 34.47139648 50.78125 34.9921875 C51.74520691 35.71375031 51.74520691 35.71375031 52.7286377 36.44989014 C54.94042207 38.04970339 54.94042207 38.04970339 57.34489441 39.09042358 C60.09090409 40.4669779 61.93513041 41.7100053 64 44 C65.31303707 48.8593821 65.1474181 53.67838955 65.01953125 58.671875 C65.0128858 60.11906805 65.00966286 61.56628046 65.00968933 63.01348877 C65.00041207 66.04386198 64.96128417 69.07182981 64.89868164 72.1015625 C64.81970719 75.95944915 64.79703184 79.8149495 64.79483509 83.67356491 C64.7898264 86.66288929 64.76343157 89.65171637 64.72995567 92.64084625 C64.71484946 94.06157714 64.70409451 95.48236194 64.69800758 96.9031601 C64.61622668 108.9322427 62.60485592 119.12143579 54 128 C47.56672041 133.12553096 40.25842516 136.34264012 32.75 139.5625 C30.95408799 140.34656289 29.15818629 141.13065019 27.36282349 141.91596985 C25.49315978 142.73296537 23.62207438 143.5466468 21.75097656 144.36035156 C15.68723173 147.00388503 9.65789242 149.72450025 3.625 152.4375 C1.80073706 153.25612027 -0.0235262 154.07473987 -1.84790039 154.89311218 C-3.67962428 155.71481539 -5.51121119 156.5368233 -7.34277344 157.35888672 C-13.39424407 160.07468343 -19.44724177 162.78707458 -25.5 165.5 C-27.91667295 166.58331931 -30.33333962 167.66665265 -32.75 168.75 C-69 185 -69 185 -105.25 201.25 C-106.44713623 201.78665283 -107.64427246 202.32330566 -108.87768555 202.8762207 C-111.28538362 203.95552244 -113.69309836 205.03478699 -116.10083008 206.11401367 C-122.9156773 209.16872246 -129.73006065 212.22446071 -136.54389954 215.28141785 C-141.95393558 217.70832671 -147.36562622 220.1315304 -152.77734375 222.5546875 C-155.77011604 223.89690053 -158.76042455 225.24443527 -161.75 226.59375 C-163.39579813 227.33341168 -165.04162858 228.07300142 -166.6875 228.8125 C-167.78324341 229.31003784 -167.78324341 229.31003784 -168.90112305 229.81762695 C-173.77327237 232 -173.77327237 232 -176 232 C-176.06969919 223.14172284 -176.12291194 214.28354099 -176.15543652 205.42504883 C-176.17105153 201.31109895 -176.19221302 197.19733753 -176.22631836 193.08349609 C-176.25906131 189.10883751 -176.27688429 185.13435952 -176.28463173 181.15957642 C-176.29014857 179.64780843 -176.30092134 178.13604964 -176.31719017 176.62435913 C-176.49009659 159.88284527 -176.49009659 159.88284527 -171.44604492 152.82592773 C-167.36584164 148.9265044 -163.4749768 146.31255512 -158.3125 144.0625 C-157.51400635 143.69882324 -156.7155127 143.33514648 -155.89282227 142.96044922 C-152.93651489 141.62183539 -149.96876943 140.31074138 -147 139 C-145.09476797 138.15224033 -143.19028487 137.30281095 -141.28578186 136.45341492 C-136.12424236 134.15175222 -130.96039741 131.8553617 -125.79223633 129.56860352 C-113.83264234 124.27538986 -101.91037819 118.90294016 -90 113.5 C-75.33455194 106.84905448 -60.64320742 100.26075807 -45.91845703 93.7421875 C-38.57834273 90.49088178 -31.24968916 87.21685585 -23.94140625 83.89453125 C-23.21345352 83.56394211 -22.48550079 83.23335297 -21.73548889 82.89274597 C-18.27616229 81.32114953 -14.81881423 79.74542879 -11.36450195 78.1628418 C-10.14670583 77.60843224 -8.92885432 77.05414436 -7.7109375 76.5 C-6.65181152 76.0153125 -5.59268555 75.530625 -4.50146484 75.03125 C-2 74 -2 74 0 74 C0 49.58 0 25.16 0 0 Z " fill="#FEFDFD" transform="translate(293,299)"/>
<path d="M0 0 C0.33 0 0.66 0 1 0 C1 22.11 1 44.22 1 67 C6.115 64.64875 11.23 62.2975 16.5 59.875 C19.70216546 58.41707147 22.90485376 56.96052468 26.109375 55.5078125 C31.74546949 52.95166165 37.36622746 50.36767575 42.96459961 47.72988892 C45.86100457 46.37104411 48.76807698 45.03626127 51.67797852 43.706604 C53.05381511 43.07141233 54.42486667 42.42574671 55.79077148 41.76947021 C66.62206034 36.57557133 66.62206034 36.57557133 71.703125 38.140625 C72.80691129 39.08815468 73.90519801 40.04210372 75 41 C75.88784683 41.45755676 76.77569366 41.91511353 77.69044495 42.38653564 C81.104614 44.2966794 83.44536822 46.01881324 86 49 C87.5542343 55.10148287 87.28627677 61.02605082 87.07421875 67.28125 C87.05367896 69.06338686 87.03803191 70.84558621 87.02705383 72.62780762 C86.98523181 77.29840329 86.87735507 81.96518116 86.75531006 86.63427734 C86.64238275 91.40670115 86.59246017 96.17974767 86.53710938 100.953125 C86.41945575 110.30375265 86.23195146 119.65155781 86 129 C78.31098271 124.63570873 78.31098271 124.63570873 75.01171875 122.22265625 C74.3151416 121.71613525 73.61856445 121.20961426 72.90087891 120.68774414 C72.17046387 120.15141357 71.44004883 119.61508301 70.6875 119.0625 C69.08466344 117.89579484 67.48179806 116.72912926 65.87890625 115.5625 C65.06695801 114.96953125 64.25500977 114.3765625 63.41845703 113.765625 C59.66056573 111.02212915 55.8945745 108.28991522 52.125 105.5625 C51.02031372 104.76307983 51.02031372 104.76307983 49.89331055 103.94750977 C44.29939679 99.91111947 38.65825163 95.94554847 33 92 C26.31839979 87.34052298 19.66863791 82.64097295 13.0625 77.875 C11.95358398 77.07642578 11.95358398 77.07642578 10.82226562 76.26171875 C10.12939453 75.76027344 9.43652344 75.25882812 8.72265625 74.7421875 C8.12203369 74.3076123 7.52141113 73.87303711 6.90258789 73.42529297 C6.27473389 72.95494629 5.64687988 72.48459961 5 72 C4.14746643 71.44871429 3.29493286 70.89742859 2.41656494 70.32943726 C0 68 0 68 -0.60127258 64.93743896 C-0.59016953 63.73830872 -0.57906647 62.53917847 -0.56762695 61.30371094 C-0.56835709 60.63988403 -0.56908722 59.97605713 -0.56983948 59.29211426 C-0.56636533 57.1053599 -0.52751961 54.92075551 -0.48828125 52.734375 C-0.47895233 51.21552697 -0.47183659 49.69666387 -0.46684265 48.17779541 C-0.44777854 44.18581386 -0.39868435 40.19474619 -0.34332275 36.203125 C-0.29211668 32.12772993 -0.26932581 28.05218675 -0.24414062 23.9765625 C-0.19056367 15.98395624 -0.1052596 7.9920919 0 0 Z " fill="#EBEAEA" transform="translate(116,184)"/>
<path d="M0 0 C4.56367471 1.82546988 7.90302063 3.95421137 11.75 6.875 C13.09142081 7.87637736 14.43390887 8.87632631 15.77734375 9.875 C16.4719873 10.39191406 17.16663086 10.90882813 17.88232422 11.44140625 C21.32155121 13.97265194 24.81603353 16.4237348 28.3125 18.875 C35.14668881 23.67246833 41.92756708 28.53904007 48.6730957 33.46044922 C53.13390644 36.70157563 57.66524561 39.76574219 62.33007812 42.70751953 C62.88115234 43.13403809 63.43222656 43.56055664 64 44 C64 44.66 64 45.32 64 46 C47.75063805 53.38823328 31.47538559 60.71271667 15.125 67.875 C14.06575317 68.34005951 14.06575317 68.34005951 12.98510742 68.81451416 C10.99359071 69.68834886 9.00093966 70.5595334 7.0078125 71.4296875 C5.86973145 71.92710449 4.73165039 72.42452148 3.55908203 72.93701172 C1 74 1 74 0 74 C0 49.58 0 25.16 0 0 Z " fill="#EFEFEF" transform="translate(293,299)"/>
<path d="M0 0 C0.33 0 0.66 0 1 0 C1 22.11 1 44.22 1 67 C6.115 64.64875 11.23 62.2975 16.5 59.875 C19.70216546 58.41707147 22.90485376 56.96052468 26.109375 55.5078125 C31.74546949 52.95166165 37.36622746 50.36767575 42.96459961 47.72988892 C45.86100457 46.37104411 48.76807698 45.03626127 51.67797852 43.706604 C53.05381511 43.07141233 54.42486667 42.42574671 55.79077148 41.76947021 C66.40426046 36.68001232 66.40426046 36.68001232 70.22680664 37.4465332 C72.01953125 38.47265625 72.01953125 38.47265625 75 41 C76.01964844 41.41636719 77.03929687 41.83273438 78.08984375 42.26171875 C81.85789499 44.14832877 83.63113816 45.45090735 86 49 C87.42970253 57.20939748 86.66529052 65.73737093 86 74 C85.67 74 85.34 74 85 74 C85.020625 72.78183594 85.04125 71.56367188 85.0625 70.30859375 C85.26887826 61.38074576 85.26887826 61.38074576 82.2578125 53.24609375 C79.12126164 50.494431 77.23983575 49 73 49 C69.7386789 47.24390402 66.97852762 45.23389572 64 43 C64.99 48.94 64.99 48.94 66 55 C61.86873527 53.07848152 58.46741134 50.95749791 55 48 C55.15597656 48.61488281 55.31195313 49.22976562 55.47265625 49.86328125 C55.66730469 50.67152344 55.86195313 51.47976562 56.0625 52.3125 C56.35833984 53.51326172 56.35833984 53.51326172 56.66015625 54.73828125 C57 57 57 57 56 60 C52.46627288 58.03681826 49.75520215 55.95929119 47 53 C47.16757813 53.69867188 47.33515625 54.39734375 47.5078125 55.1171875 C47.71148437 56.02726562 47.91515625 56.93734375 48.125 57.875 C48.33382812 58.77992188 48.54265625 59.68484375 48.7578125 60.6171875 C48.83773437 61.40351563 48.91765625 62.18984375 49 63 C48.34 63.66 47.68 64.32 47 65 C43.46627288 63.03681826 40.75520215 60.95929119 38 58 C38.15597656 58.68707031 38.31195313 59.37414062 38.47265625 60.08203125 C38.76462891 61.43361328 38.76462891 61.43361328 39.0625 62.8125 C39.35833984 64.15248047 39.35833984 64.15248047 39.66015625 65.51953125 C40 68 40 68 39 71 C32.57142857 66.85714286 32.57142857 66.85714286 30 64 C29.89958572 68.16224452 29.89958572 68.16224452 30.5625 72.25 C31 74 31 74 30 76 C26.69589177 73.87068581 23.71327575 71.84364336 21 69 C21.0721875 69.68707031 21.144375 70.37414062 21.21875 71.08203125 C21.3115625 71.98308594 21.404375 72.88414062 21.5 73.8125 C21.5928125 74.70582031 21.685625 75.59914063 21.78125 76.51953125 C22 79 22 79 22 82 C18.54531896 82 17.79707828 81.40778014 15.05859375 79.4453125 C13.93614258 78.64673828 13.93614258 78.64673828 12.79101562 77.83203125 C11.62602539 76.98705078 11.62602539 76.98705078 10.4375 76.125 C9.65697266 75.56941406 8.87644531 75.01382813 8.07226562 74.44140625 C2.32708017 70.32708017 2.32708017 70.32708017 0 68 C-0.24050903 65.177948 -0.24050903 65.177948 -0.22705078 61.53076172 C-0.22734283 60.86722687 -0.22763489 60.20369202 -0.22793579 59.52005005 C-0.22654056 57.32313028 -0.21097067 55.12654814 -0.1953125 52.9296875 C-0.19158305 51.40797104 -0.18873576 49.88625219 -0.18673706 48.36453247 C-0.17909523 44.35643908 -0.15944213 40.3484903 -0.1373291 36.3404541 C-0.11688244 32.25172888 -0.10773788 28.16298034 -0.09765625 24.07421875 C-0.07619667 16.04941276 -0.04205421 8.02472436 0 0 Z " fill="#DDDADB" transform="translate(116,184)"/>
<path d="M0 0 C0.33 0 0.66 0 1 0 C1 22.11 1 44.22 1 67 C6.61 64.36 12.22 61.72 18 59 C19.485 59.495 19.485 59.495 21 60 C19.68 61.32 18.36 62.64 17 64 C17.70576172 64.81791016 17.70576172 64.81791016 18.42578125 65.65234375 C20.23561709 68.35137934 20.67904664 70.36836992 21.1875 73.5625 C21.34605469 74.51253906 21.50460938 75.46257812 21.66796875 76.44140625 C22 79 22 79 22 82 C18.54531896 82 17.79707828 81.40778014 15.05859375 79.4453125 C13.93614258 78.64673828 13.93614258 78.64673828 12.79101562 77.83203125 C11.62602539 76.98705078 11.62602539 76.98705078 10.4375 76.125 C9.65697266 75.56941406 8.87644531 75.01382813 8.07226562 74.44140625 C2.32708017 70.32708017 2.32708017 70.32708017 0 68 C-0.24050903 65.177948 -0.24050903 65.177948 -0.22705078 61.53076172 C-0.22734283 60.86722687 -0.22763489 60.20369202 -0.22793579 59.52005005 C-0.22654056 57.32313028 -0.21097067 55.12654814 -0.1953125 52.9296875 C-0.19158305 51.40797104 -0.18873576 49.88625219 -0.18673706 48.36453247 C-0.17909523 44.35643908 -0.15944213 40.3484903 -0.1373291 36.3404541 C-0.11688244 32.25172888 -0.10773788 28.16298034 -0.09765625 24.07421875 C-0.07619667 16.04941276 -0.04205421 8.02472436 0 0 Z " fill="#EDCDCD" transform="translate(116,184)"/>
<path d="M0 0 C0.7425 0.309375 1.485 0.61875 2.25 0.9375 C4.84247864 2.0380224 4.84247864 2.0380224 7.0625 2.375 C9.75874232 3.24475559 11.12980125 4.92942281 13 7 C13.66 6.34 14.32 5.68 15 5 C17.83283374 6.14502991 19.12486441 6.67456303 21 9 C21.78847047 13.25805155 21.56206474 17.43791789 21.375 21.75 C21.34792969 22.92433594 21.32085937 24.09867188 21.29296875 25.30859375 C21.22226173 28.2075816 21.12361956 31.1028647 21 34 C20.67 34 20.34 34 20 34 C20.020625 32.78183594 20.04125 31.56367188 20.0625 30.30859375 C20.26887826 21.38074576 20.26887826 21.38074576 17.2578125 13.24609375 C14.12126164 10.494431 12.23983575 9 8 9 C3.95293333 7.02835214 1.63848309 4.61569905 -1 1 C-0.67 0.67 -0.34 0.34 0 0 Z " fill="#E2DEDE" transform="translate(181,224)"/>
<path d="M0 0 C2.96772382 1.37787177 5.43197371 2.97670656 8 5 C8.86625 5.556875 9.7325 6.11375 10.625 6.6875 C13.92854267 9.90410734 14.17688897 12.51030348 15 17 C14.01 17.33 13.02 17.66 12 18 C5.92241127 14.45473991 1.12974054 10.14238196 -0.75 3.25 C-0.8325 2.5075 -0.915 1.765 -1 1 C-0.67 0.67 -0.34 0.34 0 0 Z " fill="#DDDADA" transform="translate(124,249)"/>
<path d="M0 0 C3.78717347 1.48781815 5.77407001 3.61988409 8 7 C7.67 7.99 7.34 8.98 7 10 C4.03 7.69 1.06 5.38 -2 3 C-1.34 2.01 -0.68 1.02 0 0 Z " fill="#DECCCC" transform="translate(119,250)"/>
<path d="M0 0 C0 2.31 0 4.62 0 7 C-3.33333333 5.33333333 -6.66666667 3.66666667 -10 2 C-3.375 -1.125 -3.375 -1.125 0 0 Z " fill="#E1D4D4" transform="translate(171,229)"/>
<path d="M0 0 C0.66 0 1.32 0 2 0 C2.33 2.31 2.66 4.62 3 7 C1.35 6.01 -0.3 5.02 -2 4 C-1.34 2.68 -0.68 1.36 0 0 Z " fill="#DBDBDC" transform="translate(177,225)"/>
<path d="M0 0 C3 1 3 1 4.1875 2.875 C5 5 5 5 5 8 C3.2925002 6.71937515 1.62626404 5.38232443 0 4 C0 3.34 0 2.68 0 2 C-0.66 1.67 -1.32 1.34 -2 1 C-1.34 0.67 -0.68 0.34 0 0 Z " fill="#DED3D4" transform="translate(139,241)"/>
<path d="M0 0 C0.66 0.33 1.32 0.66 2 1 C0.68 2.65 -0.64 4.3 -2 6 C-3.32 5.01 -4.64 4.02 -6 3 C-4.03533587 1.93224776 -2.03144641 0.93446535 0 0 Z " fill="#E6CDCD" transform="translate(152,235)"/>
</svg>
